<svg width="32" height="32" viewBox="0 0 32 32" fill="none" xmlns="http://www.w3.org/2000/svg">
<g opacity="0.8">
<path d="M32 16C32 24.8367 24.8367 32.0002 16.0001 32.0002C7.16344 32.0002 0 24.8367 0 16C0 7.16344 7.16344 0 16.0001 0C24.8366 0 32 7.16344 32 16Z" fill="#2873FB"/>
<path d="M15.9489 8.57593L15.8501 8.91183V18.659L15.9489 18.7577L20.4735 16.0832L15.9489 8.57593Z" fill="white"/>
<path d="M15.9488 8.57593L11.4243 16.0832L15.9488 18.7577V14.0267V8.57593Z" fill="white"/>
<path d="M15.949 20.2297L15.8933 20.2976V23.7698L15.949 23.9324L20.4763 17.5566L15.949 20.2297Z" fill="white"/>
<path d="M15.9488 23.9325V20.2297L11.4243 17.5566L15.9488 23.9325Z" fill="white"/>
<path d="M15.9487 18.7578L20.4732 16.0834L15.9487 14.0269V18.7578Z" fill="white"/>
<path d="M11.4243 16.0831L15.9488 18.7576V14.0266L11.4243 16.0831Z" fill="white"/>
</g>
</svg>
