<svg xmlns="http://www.w3.org/2000/svg" width="21.092" height="12.728" viewBox="0 0 21.092 12.728"><g transform="translate(-1103.454 -492)"><path d="M15.207,13.5l-6.22-6.22h2.689a.75.75,0,1,0,0-1.5h-4.5a.749.749,0,0,0-.75.75h0v4.5a.75.75,0,1,0,1.5,0V8.345l6.22,6.22A.75.75,0,1,0,15.207,13.5Z" transform="translate(1109.364 483.366) rotate(45)" fill="#fff"/><path d="M15.207,13.5l-6.22-6.22h2.689a.75.75,0,1,0,0-1.5h-4.5a.749.749,0,0,0-.75.75h0v4.5a.75.75,0,1,0,1.5,0V8.345l6.22,6.22A.75.75,0,1,0,15.207,13.5Z" transform="translate(1118.636 513.362) rotate(-135)" fill="#fff"/></g></svg>